<?xml version="1.0" standalone="no"?>
<!DOCTYPE svg PUBLIC "-//W3C//DTD SVG 20010904//EN"
 "http://www.w3.org/TR/2001/REC-SVG-20010904/DTD/svg10.dtd">
<svg version="1.0" xmlns="http://www.w3.org/2000/svg"
 width="500.000000pt" height="500.000000pt" viewBox="0 0 500.000000 500.000000"
 preserveAspectRatio="xMidYMid meet">
<metadata>
Created by potrace 1.14, written by Peter Selinger 2001-2017
</metadata>
<g transform="translate(0.000000,500.000000) scale(0.100000,-0.100000)"
fill="#000000" stroke="none">
<path d="M2610 3740 c0 -18 -7 -20 -85 -20 -50 0 -85 -4 -85 -10 0 -6 35 -10
84 -10 80 0 85 -1 89 -22 2 -13 5 1 6 30 0 28 -1 52 -4 52 -3 0 -5 -9 -5 -20z"/>
<path d="M2483 3523 c26 -2 68 -2 95 0 26 2 4 3 -48 3 -52 0 -74 -1 -47 -3z"/>
<path d="M2440 3340 c0 -22 5 -40 10 -40 6 0 10 14 10 30 l0 30 80 0 c47 0 80
4 80 10 0 6 -37 10 -90 10 l-90 0 0 -40z"/>
<path d="M2440 3130 c0 -22 5 -40 10 -40 6 0 10 16 10 35 l0 34 83 4 82 3 -92
2 -93 2 0 -40z"/>
<path d="M2440 2960 c0 -6 37 -10 90 -10 53 0 90 4 90 10 0 6 -37 10 -90 10
-53 0 -90 -4 -90 -10z"/>
<path d="M2440 2754 c0 -34 4 -53 10 -49 6 3 10 24 10 46 0 37 2 39 30 39 28
0 30 -2 30 -40 0 -22 5 -40 10 -40 6 0 10 18 10 40 0 39 1 40 34 40 34 0 35
-1 39 -47 3 -47 3 -47 5 10 l2 57 -90 0 -90 0 0 -56z"/>
<path d="M2610 2390 c0 -18 -7 -20 -85 -20 -50 0 -85 -4 -85 -10 0 -6 35 -10
84 -10 85 0 85 0 89 -27 2 -16 5 -2 6 30 0 31 -1 57 -4 57 -3 0 -5 -9 -5 -20z"/>
<path d="M2469 2161 c-47 -48 -38 -116 21 -146 39 -20 62 -19 94 6 76 60 38
169 -59 169 -16 0 -38 -12 -56 -29z m118 -17 c20 -20 24 -31 19 -57 -12 -62
-70 -85 -120 -46 -33 26 -35 73 -4 106 29 31 72 30 105 -3z"/>
<path d="M2469 1851 c-71 -71 4 -185 97 -146 53 22 72 68 49 121 -25 62 -97
74 -146 25z m124 -23 c48 -64 -37 -149 -101 -101 -36 27 -42 83 -12 113 30 30
86 24 113 -12z"/>
<path d="M2440 1520 c0 -22 5 -40 10 -40 6 0 10 16 10 35 l0 34 83 4 82 3 -92
2 -93 2 0 -40z"/>
<path d="M2457 1352 c-24 -26 -22 -84 3 -107 30 -27 64 -8 82 47 12 35 19 43
39 43 18 0 25 -6 27 -24 2 -13 -1 -28 -7 -34 -6 -6 -11 -18 -11 -26 0 -13 2
-13 17 1 19 20 22 71 3 92 -7 9 -23 16 -37 16 -19 0 -27 -9 -39 -37 -27 -70
-37 -80 -63 -64 -18 11 -19 70 -1 81 7 4 11 13 8 20 -2 7 -9 5 -21 -8z"/>
</g>
</svg>
